<?xml version="1.0" ?><!DOCTYPE svg  PUBLIC '-//W3C//DTD SVG 1.1//EN'  'http://www.w3.org/Graphics/SVG/1.1/DTD/svg11.dtd'><svg enable-background="new 0 0 128 128" id="Слой_1" version="1.1" viewBox="0 0 128 128" xml:space="preserve" xmlns="http://www.w3.org/2000/svg" xmlns:xlink="http://www.w3.org/1999/xlink"><g><path d="M110.1,118l0-6.4c-0.9-1.8-91.2-1.8-92.2,0l0,6.8l0,0c0.1,3.8,5.9,6.8,14.7,6.8h62.8   C104.5,125.2,110.4,122,110.1,118L110.1,118z" fill="#ADA2B5"/><path d="M110.1,111.6c-0.9-1.8-91.2-1.8-92.2,0l0,6.8   c0.1,3.8,5.9,6.8,14.7,6.8h62.8c9.1,0,15-3.2,14.7-7.2L110.1,111.6z" fill="none" stroke="#62345B" stroke-miterlimit="10" stroke-width="2.5"/><g><g><path d="M95.4,118.2H32.6c-10.4,0-16.6-4.2-14.1-8.9l16.4-31.1c0.9-1.8,6.3-3.1,12-3.1h34.4c5.7,0,11,1.4,12,3.1     l16.4,31.1C112,114,105.8,118.2,95.4,118.2z" fill="#ECEBEC"/></g><g><path d="M95.4,119.4H32.6c-7.3,0-13.1-2.1-15.2-5.4c-1-1.7-1-3.5-0.1-5.3l16.4-31.1c1.4-2.6,7.7-3.8,13.1-3.8     h34.4c5.3,0,11.7,1.2,13.1,3.8l16.4,31.1c0.9,1.8,0.9,3.7-0.1,5.3C108.6,117.4,102.7,119.4,95.4,119.4z M46.8,76.2     c-6.3,0-10.4,1.6-10.9,2.5l-16.4,31.1c-0.5,1-0.5,2,0,2.9c1.2,1.9,5.3,4.2,13,4.2h62.8c7.7,0,11.8-2.3,13-4.2     c0.5-0.9,0.6-1.9,0-2.9L92.1,78.7c-0.5-0.9-4.6-2.5-10.9-2.5H46.8z" fill="#62345B"/></g><g opacity="0.2"><path d="M88.4,105.1l-48.8,0c-6,0-9.9-2.1-8.9-4.6l9.4-21.9c0.5-1.2,4.1-2.2,8-2.2h31.8c3.9,0,7.5,0.9,8,2.2     l9.4,21.9C98.3,103,94.4,105.1,88.4,105.1z" fill="#62345B"/></g><g><path d="M88.4,106.4H39.6c-4.7,0-8.4-1.3-9.7-3.3c-0.6-1-0.7-2-0.3-3.1L39,78.1c1-2.3,6.2-2.9,9.1-2.9h31.8     c2.9,0,8.2,0.6,9.1,2.9l9.4,21.9c0.4,1,0.3,2.1-0.3,3.1C96.8,105.1,93.1,106.4,88.4,106.4z M48.1,77.7c-3.8,0-6.5,0.9-6.9,1.4     L31.9,101c-0.1,0.3-0.1,0.5,0.1,0.7c0.7,1,3.4,2.2,7.6,2.2h48.8c4.3,0,7-1.1,7.6-2.2c0.2-0.3,0.2-0.5,0.1-0.7l-9.4-21.9     c-0.3-0.5-3-1.4-6.8-1.4H48.1z" fill="#62345B"/></g><g opacity="0.2"><path d="M69.1,111.3c0.1,1.4-2.2,2.6-5.1,2.6s-5.3-1.2-5.1-2.6c0.1-1.3,2.4-2.4,5.1-2.4     C66.7,108.9,69,109.9,69.1,111.3z" fill="#62345B"/></g></g><g><g opacity="0.1"><path d="M87.6,87.7c0,4.2-6.8,7.6-15.2,7.6H64c0-4.2,7.4-15.1,16.4-14.1C84.9,81.8,87.6,85,87.6,87.7z" fill="#62345B"/></g><g><circle cx="64" cy="16.5" fill="#F1EE8D" r="12.5"/></g><g opacity="0.1"><path d="M76.5,16.5C76.5,9.6,70.9,4,64,4c-0.4,0-0.8,0-1.2,0.1c3.2,0.8,6,10,7.4,23.3     C74,25.2,76.5,21.2,76.5,16.5z" fill="#62345B"/></g><g><path d="M64,30.2c-7.6,0-13.8-6.2-13.8-13.8S56.4,2.8,64,2.8s13.8,6.2,13.8,13.8S71.6,30.2,64,30.2z M64,5.2     c-6.2,0-11.2,5-11.2,11.2s5,11.2,11.2,11.2s11.2-5,11.2-11.2S70.2,5.2,64,5.2z" fill="#62345B"/></g><g><path d="M76.9,29.7c-0.7-0.2-1.4-0.1-1.9,0.4c-3,2.4-6.8,3.9-11,3.9s-8-1.5-11-3.9c-0.5-0.4-1.3-0.6-1.9-0.4     C44,32,39.2,39.2,40.5,47c0.6,3.6,1.4,7.2,2.4,10.8c0.6,2.2,2.6,3.7,4.8,3.7h1.8c1.6,9.7,3.5,19.4,8.5,28.9     c1.2,2.2,3.4,3.6,5.9,3.6s4.7-1.4,5.9-3.6c5.1-9.6,6.9-19.2,8.5-28.9h1.8c2.3,0,4.2-1.5,4.8-3.7c1-3.6,1.8-7.2,2.4-10.8     C88.8,39.2,84,32,76.9,29.7z" fill="#F1EE8D"/></g><g opacity="0.1"><path d="M76.9,29.7c-0.7-0.2-1.4-0.1-1.9,0.4c-1.3,1-2.7,1.9-4.3,2.6c0.4,5.1,0.6,10.6,0.6,16.3     c0,23.9-3.7,43.4-8.4,44.9C63.2,94,63.6,94,64,94c2.5,0,4.7-1.4,5.9-3.6c5.1-9.6,6.9-19.2,8.5-28.9h1.8c2.3,0,4.2-1.5,4.8-3.7     c1-3.6,1.8-7.2,2.4-10.8C88.8,39.2,84,32,76.9,29.7z" fill="#62345B"/></g><g><path d="M64,95.2c-2.9,0-5.6-1.6-7-4.2c-4.9-9.2-6.8-18.3-8.5-28.3h-0.8c-2.8,0-5.3-1.9-6-4.6     c-1-3.6-1.8-7.3-2.4-11C37.9,39,42.8,31,50.7,28.5c1-0.3,2.2-0.1,3.1,0.6c2.9,2.4,6.5,3.6,10.2,3.6s7.3-1.3,10.2-3.6     c0.9-0.7,2-0.9,3.1-0.6C85.2,31,90.1,39,88.7,47.2c-0.6,3.6-1.4,7.3-2.4,11c-0.7,2.7-3.2,4.6-6,4.6h-0.8     c-1.7,10-3.6,19.1-8.5,28.3C69.6,93.6,66.9,95.2,64,95.2z M51.7,30.9c-0.1,0-0.2,0-0.2,0c-6.7,2.1-10.9,8.9-9.7,15.9     c0.6,3.6,1.4,7.2,2.4,10.7c0.4,1.6,1.9,2.8,3.6,2.8h1.8c0.6,0,1.1,0.4,1.2,1c1.7,10.2,3.6,19.4,8.4,28.6c0.9,1.8,2.8,2.9,4.8,2.9     s3.8-1.1,4.8-2.9c4.9-9.2,6.7-18.4,8.4-28.6c0.1-0.6,0.6-1,1.2-1h1.8c1.7,0,3.2-1.1,3.6-2.8c1-3.6,1.8-7.2,2.4-10.7     c1.2-6.9-3-13.7-9.7-15.9c-0.3-0.1-0.5,0-0.8,0.2c-3.3,2.7-7.5,4.2-11.8,4.2s-8.4-1.5-11.8-4.2C52.1,30.9,51.9,30.9,51.7,30.9z" fill="#62345B"/></g></g></g></svg>